<?xml version="1.0" standalone="no"?>
<!DOCTYPE svg PUBLIC "-//W3C//DTD SVG 20010904//EN"
 "http://www.w3.org/TR/2001/REC-SVG-20010904/DTD/svg10.dtd">
<svg version="1.0" xmlns="http://www.w3.org/2000/svg"
 width="424.000000pt" height="339.000000pt" viewBox="0 0 424.000000 339.000000"
 preserveAspectRatio="xMidYMid meet">

<g transform="translate(0.000000,339.000000) scale(0.100000,-0.100000)"
fill="#000000" stroke="none">
<path d="M935 3304 c-288 -46 -509 -246 -581 -524 -24 -92 -22 -243 5 -344 22
-85 73 -186 127 -252 l33 -42 -19 -68 c-29 -108 -42 -189 -49 -319 l-6 -120
-66 3 c-99 6 -149 -26 -149 -94 0 -20 14 -40 53 -75 l52 -49 -37 0 c-61 0 -84
-14 -103 -65 -14 -36 -16 -51 -7 -70 17 -37 58 -32 178 22 94 42 106 45 120
31 14 -14 8 -19 -60 -51 -99 -47 -177 -120 -219 -206 -30 -63 -32 -72 -32
-181 0 -109 2 -119 32 -182 44 -94 108 -159 207 -210 241 -124 303 -152 428
-193 293 -96 720 -176 1102 -206 193 -15 649 -6 806 16 598 83 1025 337 1195
709 55 120 58 113 -38 104 -45 -4 -98 -9 -117 -12 -19 -3 -67 -8 -106 -10
l-71 -5 43 66 c71 108 97 184 98 283 1 78 -2 90 -32 146 -43 79 -97 131 -200
193 -187 112 -523 205 -942 261 l-145 20 106 -5 c212 -10 591 -63 764 -106
226 -57 427 -139 534 -220 29 -22 55 -39 57 -36 2 2 -1 51 -6 110 -12 123 -41
275 -70 362 l-20 60 -139 68 -139 68 -95 -47 -95 -48 -102 47 c-56 26 -110 47
-121 47 -10 0 -88 -34 -171 -76 l-153 -76 -64 37 -64 38 -52 -17 c-28 -9 -57
-16 -64 -16 -6 0 -47 29 -91 64 l-79 65 -67 -19 -67 -19 -31 21 c-17 12 -59
44 -93 71 -73 56 -62 57 -214 -19 l-107 -53 -80 38 -80 39 30 60 c90 181 91
421 4 605 -43 92 -96 159 -171 220 -135 109 -260 157 -425 162 -58 2 -118 1
-135 -1z m260 -91 c100 -25 192 -79 276 -163 129 -129 187 -281 176 -464 -6
-117 -35 -205 -95 -297 -75 -114 -174 -193 -310 -247 -61 -24 -79 -26 -207
-27 -154 0 -197 9 -310 69 -88 46 -202 163 -248 256 -141 282 -52 617 209 789
156 102 325 130 509 84z m805 -998 c-47 -18 -71 -18 -40 0 14 8 36 14 50 14
22 0 21 -2 -10 -14z m-374 -27 c4 -6 3 -8 -4 -4 -6 3 -13 2 -17 -4 -3 -5 -11
-10 -17 -10 -7 0 -6 6 2 15 15 18 26 19 36 3z m724 -58 c0 -5 -9 -10 -20 -10
-11 0 -20 5 -20 10 0 6 9 10 20 10 11 0 20 -4 20 -10z m729 -23 c-2 -2 -33
-23 -68 -46 -49 -33 -69 -41 -89 -36 -25 6 -25 7 19 32 51 29 132 63 138 57 2
-2 2 -5 0 -7z m477 -37 c39 -36 41 -40 20 -40 -12 0 -48 10 -79 23 l-57 23 32
16 c18 9 35 17 37 17 2 1 23 -17 47 -39z m-913 -27 c-7 -2 -19 -2 -25 0 -7 3
-2 5 12 5 14 0 19 -2 13 -5z m-912 -182 c23 -23 29 -38 29 -71 0 -27 -5 -43
-15 -47 -24 -9 -139 31 -143 50 -4 19 64 97 85 97 8 0 28 -13 44 -29z m684
-17 c608 -60 1054 -234 1145 -446 32 -75 26 -170 -18 -262 -34 -72 -128 -199
-142 -191 -4 3 -80 7 -169 10 -137 5 -165 3 -193 -11 -47 -24 -35 -14 68 55
312 208 335 397 67 554 -224 131 -520 214 -1088 306 -88 15 137 4 330 -15z
m-855 -64 c0 -14 -32 -29 -81 -36 -53 -8 -44 8 16 30 48 18 65 19 65 6z m310
-35 c18 -9 30 -24 30 -35 0 -16 5 -19 30 -14 27 6 31 3 45 -29 62 -148 -66
-238 -174 -123 -45 48 -55 31 -21 -31 18 -32 82 -152 142 -268 61 -115 125
-235 144 -266 39 -66 42 -84 13 -99 -47 -26 -64 -8 -137 143 -88 180 -90 182
-120 162 -29 -21 -28 -35 1 -35 32 0 70 -65 47 -81 -8 -5 -24 -7 -35 -4 -11 3
-44 8 -72 11 -29 4 -53 11 -53 17 0 43 88 156 111 141 5 -3 9 -1 9 4 0 17 -46
132 -109 275 -34 76 -61 144 -61 153 0 12 13 14 67 13 58 -2 69 1 85 21 10 12
18 31 18 41 0 23 3 23 40 4z m-328 -117 c87 -26 183 -172 183 -278 0 -47 -7
-66 -47 -135 -26 -45 -67 -139 -93 -214 -52 -154 -74 -195 -114 -209 -68 -24
-748 21 -883 58 -42 12 -60 48 -38 75 21 25 71 26 250 5 279 -34 426 -49 545
-56 100 -6 111 -5 126 12 21 24 110 274 103 286 -10 15 -34 -13 -70 -81 -85
-161 -98 -174 -162 -169 -28 2 -38 8 -40 23 -9 62 -11 66 -45 63 -43 -3 -57 7
-57 41 0 43 20 53 99 49 l71 -3 -6 50 c-5 41 -3 55 14 75 19 23 26 25 111 25
89 0 90 0 125 34 64 63 56 135 -20 167 -44 19 -72 12 -258 -65 -82 -33 -163
-61 -181 -61 -20 0 -49 12 -79 34 l-48 34 124 87 c211 149 295 182 390 153z
m-967 -83 c165 -8 213 -22 313 -90 45 -30 86 -55 91 -55 12 0 111 -90 111
-101 0 -20 -98 -44 -180 -44 -80 0 -89 2 -150 37 -36 20 -111 55 -167 77 -57
21 -117 49 -135 62 -67 46 -138 111 -132 121 4 6 30 7 63 4 31 -3 114 -8 186
-11z m-147 -143 c2 -7 -27 -27 -71 -47 -88 -41 -91 -41 -77 -15 6 11 17 20 24
20 7 0 33 13 57 30 45 30 60 33 67 12z m1796 -111 c33 -11 63 -24 67 -28 5 -5
-55 -8 -131 -8 -79 0 -143 -4 -149 -10 -7 -7 26 -10 97 -10 97 0 112 -3 164
-28 225 -111 244 -438 34 -582 -77 -52 -128 -68 -231 -68 -71 -1 -102 4 -147
22 -76 30 -159 106 -195 179 -24 49 -28 69 -28 142 1 61 6 94 18 118 16 29 21
32 67 32 28 0 50 -3 50 -7 0 -5 -7 -30 -15 -57 -21 -69 -19 -123 9 -181 43
-93 128 -144 239 -145 273 -1 368 336 134 470 -44 25 -63 30 -124 30 l-71 0
-37 66 c-20 36 -33 70 -29 74 29 27 193 22 278 -9z m-1535 -72 c17 -6 31 -14
31 -18 0 -3 -11 -23 -25 -44 -25 -37 -26 -37 -94 -37 -133 0 -227 -79 -238
-198 -5 -53 -2 -69 21 -117 72 -146 244 -173 368 -57 24 22 32 24 82 18 31 -4
56 -10 56 -14 0 -17 -56 -83 -96 -111 -143 -104 -325 -93 -441 25 -67 69 -93
137 -93 242 1 146 73 246 218 303 53 21 162 25 211 8z m141 -35 c0 -32 -156
-194 -187 -194 -13 0 -23 2 -23 5 0 3 30 41 66 83 37 42 77 89 90 104 24 28
54 29 54 2z m318 -51 c-4 -22 -22 -20 -26 1 -2 10 3 16 13 16 10 0 15 -7 13
-17z m-184 -9 c21 -8 20 -38 0 -55 -14 -11 -18 -10 -30 6 -17 23 -18 42 -1 48
6 3 13 6 14 6 1 1 8 -2 17 -5z m-69 -97 l26 -52 -40 -3 c-48 -4 -72 8 -91 43
-14 26 -13 29 19 57 39 35 48 30 86 -45z"/>
<path d="M940 3120 c-157 -27 -296 -134 -371 -285 -143 -290 17 -624 341 -710
223 -59 479 62 583 275 122 249 27 536 -220 668 -102 54 -217 72 -333 52z
m105 -110 c0 -42 -3 -55 -15 -55 -11 0 -16 14 -18 58 -3 52 -1 58 15 55 15 -3
18 -13 18 -58z m-305 -95 c0 -8 -4 -15 -9 -15 -5 0 -11 7 -15 15 -3 9 0 15 9
15 8 0 15 -7 15 -15z m592 -7 c-6 -6 -15 -8 -19 -4 -4 4 -1 11 7 16 19 12 27
3 12 -12z m-392 -194 c64 -61 122 -84 150 -60 8 7 54 36 101 64 86 52 139 66
139 38 0 -17 -26 -36 -142 -105 -67 -39 -88 -57 -88 -73 0 -32 -29 -58 -63
-58 -31 0 -67 24 -67 44 0 6 -34 43 -76 82 -69 63 -76 73 -70 97 11 45 48 36
116 -29z m-261 -83 c8 -5 11 -16 8 -26 -10 -23 -110 -18 -115 7 -5 24 76 38
107 19z m802 -2 c32 -16 12 -29 -46 -29 -54 0 -80 15 -54 31 19 12 76 11 100
-2z m-741 -319 c-12 -23 -30 -27 -30 -7 0 17 10 27 27 27 11 0 11 -5 3 -20z
m606 -7 c-7 -7 -26 7 -26 19 0 6 6 6 15 -2 9 -7 13 -15 11 -17z m-298 -75 c-2
-48 -7 -63 -18 -63 -11 0 -16 15 -18 63 -3 57 -1 62 18 62 19 0 21 -5 18 -62z"/>
</g>
</svg>
