<?xml version="1.0" standalone="no"?>
<!DOCTYPE svg PUBLIC "-//W3C//DTD SVG 20010904//EN"
 "http://www.w3.org/TR/2001/REC-SVG-20010904/DTD/svg10.dtd">
<svg version="1.0" xmlns="http://www.w3.org/2000/svg"
 width="431.000000pt" height="245.000000pt" viewBox="0 0 431.000000 245.000000"
 preserveAspectRatio="xMidYMid meet">

<g transform="translate(0.000000,245.000000) scale(0.100000,-0.100000)"
fill="#000000" stroke="none">
<path d="M2828 2299 c-309 -21 -613 -103 -676 -184 -27 -34 -30 -75 -39 -490
l-8 -350 -6 397 c-7 465 -2 441 -119 502 -79 41 -257 83 -460 108 -212 26
-780 11 -813 -21 -14 -14 -48 -272 -152 -1147 -53 -448 -53 -436 -22 -429 42
9 312 25 442 25 426 0 875 -92 1088 -223 43 -26 52 -29 70 -18 164 103 434
187 712 221 230 29 600 29 810 0 38 -5 71 -7 73 -6 3 4 -41 378 -118 1011 -16
132 -36 301 -45 375 -25 215 -17 197 -89 209 -155 27 -424 35 -648 20z m-1113
-353 c0 -44 4 -61 15 -64 27 -8 61 -46 80 -89 20 -45 28 -51 47 -32 20 20 57
6 68 -25 9 -25 6 -31 -21 -55 -17 -14 -36 -44 -42 -67 -13 -44 -36 -70 -66
-76 -13 -2 -22 8 -35 39 -22 55 -47 81 -92 94 -47 15 -69 7 -62 -21 5 -20 2
-21 -48 -20 -30 1 -82 -7 -116 -18 -71 -23 -90 -16 -95 33 -3 27 -6 30 -36 27
-38 -4 -62 12 -62 39 0 31 42 44 93 29 56 -15 69 -9 131 64 37 43 58 59 94 69
53 16 64 37 33 64 -30 25 -26 36 10 31 24 -4 33 -1 36 13 5 18 26 28 53 25 11
-1 15 -16 15 -60z m931 20 c27 -23 28 -24 11 -49 -25 -39 -21 -46 25 -49 40
-3 42 -5 43 -35 0 -19 -4 -33 -11 -33 -20 0 -35 -27 -29 -52 4 -14 33 -54 66
-89 48 -51 61 -72 66 -106 5 -39 8 -43 34 -43 21 0 29 -5 29 -17 0 -42 20
-353 26 -405 l6 -58 -46 0 -46 0 -2 78 -2 77 -3 -77 -4 -78 -49 0 -50 0 0 95
c0 88 -2 98 -25 120 -19 20 -34 25 -75 25 -79 0 -90 -17 -90 -139 l0 -100
-106 0 -106 0 5 47 c4 26 11 121 17 212 15 226 16 230 45 230 22 0 25 5 25 33
0 26 11 45 51 87 86 92 112 150 69 150 -16 0 -20 7 -20 34 0 32 2 35 40 41 44
7 47 14 24 50 -15 23 -14 26 10 50 31 31 38 31 72 1z m655 -202 l59 -37 0
-146 c0 -80 3 -237 7 -348 l6 -203 -56 0 -57 0 0 135 c0 131 -1 137 -25 160
-19 20 -34 25 -75 25 -41 0 -56 -5 -75 -25 -24 -23 -25 -29 -25 -160 l0 -135
-45 0 -45 0 0 38 c0 20 -5 114 -10 207 -5 94 -10 235 -11 315 l-1 145 53 32
c51 31 60 33 147 33 91 0 96 -1 153 -36z m-1583 -157 c6 -5 12 -28 12 -52 0
-54 -25 -79 -75 -73 -19 2 -35 3 -35 1 0 -6 82 -158 89 -166 4 -4 6 6 3 22 -4
27 -1 30 32 36 39 8 93 0 133 -18 23 -10 24 -12 7 -24 -10 -7 -13 -13 -6 -13
20 0 84 -63 98 -97 20 -47 17 -127 -6 -172 -69 -135 -267 -151 -364 -28 -41
51 -49 148 -18 201 15 25 17 33 6 29 -23 -9 -16 21 11 47 14 13 25 31 25 40 0
9 -20 66 -45 125 -25 60 -43 115 -40 123 4 10 15 12 40 8 27 -5 41 -2 61 13
25 19 45 19 72 -2z m-233 -51 c39 -17 91 -90 101 -142 5 -25 -2 -46 -29 -96
-19 -34 -45 -94 -57 -133 -35 -109 -31 -107 -206 -106 -136 1 -297 13 -367 27
-23 5 -28 10 -25 32 3 25 7 27 51 30 26 2 94 -4 151 -12 165 -25 319 -31 332
-15 17 21 54 139 44 139 -5 0 -11 -8 -15 -18 -3 -11 -25 -40 -48 -65 -46 -51
-85 -62 -94 -28 -3 11 -15 21 -27 23 -14 2 -22 11 -24 30 -3 26 -1 27 45 30
44 3 48 5 48 30 1 42 21 57 82 60 47 3 59 7 76 30 19 25 19 28 3 52 -27 42
-55 42 -160 -3 -108 -46 -135 -50 -161 -21 -23 25 -17 33 81 100 103 71 138
81 199 56z m-492 -52 c32 -4 66 -19 106 -45 32 -21 62 -39 67 -39 10 0 54 -41
54 -51 0 -12 -61 -29 -107 -29 -25 0 -62 9 -85 21 -23 12 -66 30 -95 40 l-53
18 -63 -29 c-72 -35 -87 -37 -87 -12 0 13 14 24 41 35 35 14 39 18 30 35 -6
11 -17 22 -26 26 -8 3 -15 15 -15 27 0 21 3 21 93 15 50 -4 114 -9 140 -12z
m2496 -23 c26 -25 31 -36 31 -78 0 -26 7 -106 15 -178 8 -71 15 -145 15 -162
0 -32 -2 -33 -38 -33 l-39 0 -12 198 c-7 108 -15 216 -18 240 -7 50 3 53 46
13z m-2482 -166 c10 -29 -26 -55 -77 -55 -129 0 -180 -135 -83 -220 33 -29 41
-32 85 -28 34 4 57 13 76 31 21 19 34 24 60 20 17 -3 32 -7 32 -10 0 -18 -48
-67 -83 -85 -106 -55 -231 -4 -272 111 -20 56 -19 87 4 136 35 76 97 114 189
115 47 0 64 -4 69 -15z m63 -11 c0 -19 -98 -124 -116 -124 -8 0 -14 3 -14 6 0
5 51 73 84 112 23 26 46 29 46 6z m92 -59 c0 -5 -5 -11 -11 -13 -6 -2 -11 4
-11 13 0 9 5 15 11 13 6 -2 11 -8 11 -13z m-58 -17 c14 -20 22 -58 12 -58 -21
0 -67 26 -71 41 -14 42 33 55 59 17z"/>
<path d="M1478 1670 c-61 -21 -74 -35 -25 -26 47 9 87 26 87 38 0 10 -4 9 -62
-12z"/>
<path d="M2543 1643 c-8 -3 -13 -24 -13 -54 l0 -49 80 0 80 0 0 45 c0 40 -3
47 -26 55 -26 10 -100 12 -121 3z"/>
<path d="M2430 1390 l0 -60 55 0 55 0 0 60 0 60 -55 0 -55 0 0 -60z"/>
<path d="M2687 1443 c-4 -3 -7 -30 -7 -60 l0 -53 55 0 55 0 0 60 0 60 -48 0
c-27 0 -52 -3 -55 -7z"/>
<path d="M2414 1290 c0 -63 1 -89 3 -57 2 31 2 83 0 115 -2 31 -3 5 -3 -58z"/>
<path d="M3075 1654 c-12 -13 -15 -33 -13 -93 l3 -76 48 -9 c26 -4 67 -5 92
-1 l45 6 0 85 c0 82 -1 85 -26 94 -41 16 -130 12 -149 -6z"/>
<path d="M1736 1258 c3 -13 18 -44 33 -70 19 -36 23 -50 14 -59 -19 -19 -41
-3 -67 50 -14 27 -30 52 -36 56 -14 9 -50 -54 -50 -88 0 -139 174 -195 263
-85 76 94 7 218 -121 218 -40 0 -43 -2 -36 -22z"/>
<path d="M445 1991 c-38 -8 -71 -15 -73 -16 -1 -1 -13 -76 -27 -166 -13 -90
-42 -285 -64 -434 -38 -257 -103 -705 -138 -957 -10 -65 -14 -120 -10 -124 3
-4 62 0 129 9 284 37 375 42 788 42 429 -1 553 -9 768 -51 79 -16 82 -18 82
-44 0 -58 82 -93 220 -92 139 0 220 34 220 92 0 26 4 28 78 44 156 33 327 47
647 53 348 6 579 -4 863 -38 95 -12 176 -19 179 -15 7 7 -2 82 -66 541 -86
610 -163 1130 -170 1137 -4 4 -39 14 -79 21 -58 11 -72 11 -72 1 0 -7 29 -259
65 -561 36 -301 75 -628 86 -726 12 -98 20 -180 18 -182 -2 -2 -40 1 -84 6
-238 26 -762 28 -1025 4 -206 -19 -363 -40 -504 -66 l-159 -30 -176 31 c-330
56 -502 71 -901 76 -256 4 -414 1 -527 -8 -134 -11 -163 -11 -163 0 0 12 43
379 94 802 67 555 77 642 74 653 -2 9 -19 9 -73 -2z"/>
</g>
</svg>
