<?xml version="1.0" standalone="no"?>
<!DOCTYPE svg PUBLIC "-//W3C//DTD SVG 20010904//EN"
 "http://www.w3.org/TR/2001/REC-SVG-20010904/DTD/svg10.dtd">
<svg version="1.0" xmlns="http://www.w3.org/2000/svg"
 width="359.000000pt" height="342.000000pt" viewBox="0 0 359.000000 342.000000"
 preserveAspectRatio="xMidYMid meet">

<g transform="translate(0.000000,342.000000) scale(0.100000,-0.100000)"
fill="#000000" stroke="none">
<path d="M1563 3324 c-567 -68 -1063 -424 -1309 -938 -182 -380 -211 -789 -84
-1176 157 -481 525 -821 1054 -975 223 -64 521 -95 750 -76 399 31 663 123
912 317 450 350 654 1006 503 1619 -130 533 -556 985 -1094 1164 -225 74 -473
97 -732 65z m392 -364 c312 -29 587 -152 785 -350 190 -190 294 -418 320 -704
24 -257 -45 -602 -168 -840 -52 -101 -89 -148 -129 -165 -16 -6 -215 -45 -443
-86 -410 -75 -714 -132 -860 -161 -214 -43 -560 -104 -592 -104 -92 0 -140 44
-283 255 -91 134 -125 207 -125 269 l0 49 43 -7 c165 -24 230 -28 437 -23 132
3 268 12 330 22 479 74 908 217 1159 386 168 112 251 251 251 419 0 96 0 96
-220 159 -547 156 -1150 245 -1630 240 -96 -1 -175 0 -174 2 7 25 58 109 102
169 187 252 475 414 817 459 168 23 233 24 380 11z m-830 -710 c425 -27 969
-126 1383 -252 l102 -31 0 -53 c0 -128 -55 -237 -164 -326 -189 -153 -678
-329 -1102 -397 -325 -52 -640 -56 -838 -10 l-49 12 7 163 c14 326 55 587 128
801 29 87 33 92 62 96 66 8 318 6 471 -3z"/>
<path d="M1747 2774 c-136 -24 -269 -80 -347 -144 l-25 -21 155 6 c266 10 334
26 635 150 61 25 -288 33 -418 9z m133 -24 c-9 -17 -21 -20 -82 -20 -39 0 -68
3 -64 7 5 6 102 26 149 32 4 1 3 -8 -3 -19z"/>
<path d="M2570 1324 c-47 -12 -245 -64 -440 -113 -247 -64 -365 -99 -391 -116
-20 -13 -102 -75 -181 -137 -78 -62 -165 -129 -192 -148 -63 -45 -46 -48 89
-16 364 88 855 303 1160 509 78 53 75 54 -45 21z"/>
<path d="M820 931 c-24 -47 1 -101 48 -101 48 0 71 70 34 103 -25 23 -69 22
-82 -2z"/>
<path d="M935 2200 c-200 -11 -271 -45 -306 -147 -21 -59 -19 -320 4 -403 38
-140 109 -250 186 -289 62 -32 140 -43 337 -48 264 -8 518 20 769 84 272 69
428 206 428 376 0 77 -18 113 -76 161 -143 117 -616 241 -989 261 -62 3 -140
7 -173 9 -33 1 -114 0 -180 -4z m44 -180 c19 -5 49 -24 67 -41 l32 -31 33 18
c42 22 124 24 164 4 63 -32 96 -121 75 -201 -16 -60 -102 -143 -210 -202 -133
-72 -123 -73 -226 30 -109 108 -147 174 -147 252 0 128 95 205 212 171z"/>
<path d="M2472 1874 c-29 -20 -31 -79 -3 -94 32 -17 69 -12 85 12 22 31 20 45
-9 73 -28 29 -42 31 -73 9z"/>
</g>
</svg>
