<?xml version="1.0" ?>
<svg viewBox="0 0 64 64" 
xmlns="http://www.w3.org/2000/svg">
<g id="a"/>
<g id="b"/>
<g id="c"/>
<g id="d"/>
<g id="e">
<path style="fill:#000000;" d="M59.51,23.66c-1.66-4.15-7.13-13.8-22.03-13.8-.9,0-1.8,.04-2.69,.11h-.03c-3.05,.25-6.03,.9-8.85,1.8-1.54-1.38-7.18-5.73-16.9-5.71-5.01,.02-5.01,3.49-5.01,4.8V54.93c0,1.63,1.33,2.96,2.96,2.96H57.04c1.63,0,2.96-1.33,2.96-2.96,0-28.03,.18-29.6-.49-31.27Zm-1.86,.74c.15,.39,.23,1.05,.28,1.79-.29-.09-.58-.18-.89-.18H22.37s-.02,0-.03,0h-5.3c.06-.71,.14-1.3,.26-1.61,1.36-3.4,5.8-11.42,17.6-12.43,.85-.07,1.71-.11,2.58-.11,13.68,0,18.67,8.77,20.18,12.55Zm-21.82,10.19c.34,.18,.81,.4,1.38,.66,4.92,2.28,16.44,7.62,13.7,18.18-.31,.91-.57,1.72-.82,2.46h-1.22c1.41-3.07,1.77-5.95,.93-8.58-1.81-5.7-8.33-8.77-12.65-10.8-.7-.33-1.33-.63-1.86-.9-2.82-1.45-4.28-2.9-4.02-3.96,.58-2.4,6.98-3.63,10.13-3.63-5.77,1.1-8.09,2.24-8.29,3.77-.22,1.65,1.98,2.52,2.71,2.81Zm-14.06,4.59c1.63,1.91,2.56,5.41,1.18,8.38-1.54,3.34-5.63,5.17-11.5,5.17H6V28.98c0-.53,.43-.96,.96-.96h13.22c-.41,.59-.74,1.2-.99,1.83-.68,2.07-.78,5.38,2.59,9.34Zm-6.76-13.17H6.96c-.08,0-.15,.04-.23,.05,.08-.13,.15-.26,.25-.39,1.38-1.81,6.57-6.36,13.73-9.74-2.95,2.79-4.53,5.88-5.27,7.74-.22,.54-.35,1.29-.42,2.35ZM9.02,8.06h.1c7.54,0,12.42,2.89,14.55,4.48-8.29,3.1-14.95,8.14-17.66,11.19V10.86c0-1.43,0-2.79,3.02-2.8Zm-3.02,46.87v-.18h5.46c9.04,0,12.23-3.97,13.32-6.33,1.81-3.91,.5-8.2-1.48-10.52-2.19-2.58-2.96-5.14-2.24-7.36,.33-.84,.94-1.68,1.73-2.51h1.46c-.8,.6-1.43,1.32-1.82,2.14-.68,1.46-.92,3.86,1.74,6.99,2.74,3.22,3.41,7.9,1.68,11.64-2.11,4.58-7.23,7.1-14.4,7.1H6.96c-.53,0-.96-.43-.96-.96Zm21.67-5.3c2.05-4.44,1.26-9.98-1.98-13.78-1.09-1.28-2.23-3.16-1.44-4.86,.33-.71,1.03-1.28,1.9-1.77-.68,.81-1.01,1.71-.94,2.68,.04,.53,.48,.93,1,.93,.02,0,.05,0,.07,0,.55-.04,.97-.51,.93-1.07-.02-.36,.03-.91,.78-1.6,.41-.37,.43-1.01,.06-1.41-.1-.11-.25-.12-.38-.17,1.45-.45,3.21-.57,4.72-.57-1.56,.82-2.73,1.87-3.05,3.16-.52,2.13,1.18,4.22,5.05,6.21,.54,.28,1.2,.59,1.92,.93,4,1.88,10.04,4.73,11.59,9.6,.75,2.36,.31,5.04-1.23,7.97h-10.01c-.03-.13-.02-.26-.11-.37-.34-.43-.97-.5-1.41-.16-.36,.29-.6,.44-.76,.53h-13.08c3.66-1.79,5.5-4.4,6.36-6.26Zm30.33,5.3c0,.53-.43,.96-.96,.96h-4.84c.19-.58,.4-1.2,.63-1.89,3.17-12.24-9.87-18.28-14.78-20.56-.53-.25-.98-.45-1.39-.66-.92-.36-1.31-.64-1.47-.78,1.16-1.21,8.04-2.54,20.47-3.97h1.38c.53,0,.96,.43,.96,.96h0v25.95Z"/>
<circle style="fill:#000000;" cx="17.2" cy="46.44" r="1"/>
<circle style="fill:#000000;" cx="15.12" cy="38.37" r="1"/>
<circle style="fill:#000000;" cx="11.41" cy="33.03" r="1"/>
<circle style="fill:#000000;" cx="10.01" cy="44.44" r="1"/>
<circle style="fill:#000000;" cx="48.92" cy="33.99" r="1"/>
<circle style="fill:#000000;" cx="54.78" cy="33.92" r="1"/>
<circle style="fill:#000000;" cx="55.44" cy="44.15" r="1"/>
<path style="fill:#000000;" d="M38.15,47.38c.17,.36,.53,.57,.9,.57,.15,0,.29-.03,.43-.1,.5-.24,.71-.84,.47-1.33-.41-.84-.99-1.68-1.74-2.48-.38-.4-1.01-.43-1.41-.05-.4,.38-.43,1.01-.05,1.41,.61,.66,1.08,1.33,1.4,1.99Z"/>
<path style="fill:#000000;" d="M38.57,50.57c-.15,.71-.47,1.44-.95,2.16-.3,.46-.18,1.08,.29,1.38,.17,.11,.36,.17,.55,.17,.33,0,.64-.16,.84-.45,.61-.93,1.02-1.88,1.23-2.84,.12-.54-.23-1.07-.77-1.19-.54-.12-1.07,.23-1.19,.77Z"/>
<path style="fill:#000000;" d="M28.76,34.65c-.35-.42-.99-.48-1.41-.13-.42,.35-.48,.98-.13,1.41,.51,.61,1.13,1.28,1.92,2.07,.2,.2,.45,.29,.71,.29s.51-.1,.71-.29c.39-.39,.39-1.02,0-1.41-.75-.75-1.34-1.38-1.8-1.94Z"/>
<path style="fill:#000000;" d="M34.68,42.92c.26,0,.52-.1,.72-.31,.38-.4,.37-1.03-.03-1.41-.68-.66-1.35-1.29-1.99-1.89-.4-.38-1.03-.36-1.41,.04-.38,.4-.36,1.03,.04,1.41,.64,.6,1.3,1.23,1.98,1.88,.19,.19,.44,.28,.69,.28Z"/>
</g>
<g id="f"/>
<g id="g"/>
<g id="h"/>
<g id="i"/>
<g id="j"/>
<g id="k"/>
<g id="l"/>
<g id="m"/>
<g id="n"/>
<g id="o"/>
<g id="p"/>
<g id="q"/>
<g id="r"/>
<g id="s"/>
<g id="t"/>
<g id="u"/>
<g id="v"/>
<g id="w"/>
<g id="x"/>
<g id="y"/>
<g id="a`"/><g id="aa"/><g id="ab"/><g id="ac"/><g id="ad"/><g id="ae"/><g id="af"/><g id="ag"/><g id="ah"/><g id="ai"/><g id="aj"/><g id="ak"/><g id="al"/><g id="am"/><g id="an"/><g id="ao"/><g id="ap"/><g id="aq"/><g id="ar"/><g id="as"/><g id="at"/><g id="au"/><g id="av"/><g id="aw"/><g id="ax"/>
</svg>