<svg xmlns="http://www.w3.org/2000/svg"
    width="24dp"
    height="24dp"
    viewBox="0 0 512 512">
  <path
      d="M234.5,1.2c-4.9,0.5 -14.2,2 -20.5,3.4 -104.1,22.5 -172.7,123.5 -154.9,228.4 1,6.3 2.1,12 2.3,12.7 0.4,0.8 2.1,0.7 6.8,-0.4 3.5,-0.9 6.6,-1.9 7,-2.2 0.4,-0.3 -0.2,-5.6 -1.2,-11.6 -13.1,-76.7 22.7,-152.8 90.1,-191.8 92.9,-53.6 211.8,-16.6 258.4,80.5 24.4,50.9 24.3,109.7 -0.5,160.3 -9.1,18.7 -19.2,32.7 -54,75 -37.5,45.7 -110.9,132.5 -112,132.5 -1.5,-0 -101.2,-118.5 -129.1,-153.5 -18.3,-22.9 -24.6,-31.6 -30.4,-41.6 -2.7,-4.6 -5,-8.5 -5.1,-8.7 -0.2,-0.3 -12.3,5.5 -13.2,6.3 -0.1,0.1 2.1,4.4 5,9.5 8.9,15.6 25.6,36.9 80.3,102.5 45.8,54.9 91.5,108.5 92.5,108.5 1,-0 46.7,-53.6 92.5,-108.5 56.3,-67.6 71.5,-87 81.2,-104.1 41.1,-72.8 32.9,-162.6 -20.9,-226.9 -42.5,-51 -107.5,-77.1 -174.3,-70.3z"
      fill="#ffffff"
      stroke="#00000000"/>
  <path
      d="M233.9,36.5c-71,9.7 -128.4,65.2 -140.3,135.5 -4.6,27.5 -2.6,53.1 6.4,80.1 28.2,84.9 120.6,131.9 206,104.7 34.8,-11.1 66.8,-35.3 87.4,-66.2 8.3,-12.5 18.5,-34.3 20.2,-43.1 0.5,-3.1 0.5,-3.2 -5.5,-4.8 -3.3,-0.9 -6.5,-1.7 -7,-1.7 -0.5,-0 -1.7,2.4 -2.7,5.2 -7.5,22.8 -22.2,46 -39,61.8 -46.7,43.6 -114,53.9 -169.7,25.9 -43.2,-21.7 -72.1,-60.2 -81.3,-108.4 -2.4,-12.4 -2.4,-38.5 0,-51.5 2.2,-12 8.2,-30.4 13.4,-40.7 11.9,-23.6 32,-45.8 54.8,-60.5 13.9,-9 34.9,-17.1 52.9,-20.4 13.8,-2.6 39.2,-2.6 53,-0 30.6,5.7 56.6,19.5 79.1,42 26.6,26.6 40.6,57.1 44,95.8l0.6,7.8 7.5,-0 7.6,-0 -0.7,-8.3c-5,-60.8 -38.7,-111.3 -92.1,-137.9 -27.9,-13.9 -63.1,-19.6 -94.6,-15.3z"
      fill="#ffffff"
      stroke="#00000000"/>
  <path
      d="M218.8,114.2l-5.3,10.3 -32.3,0.3 -32.2,0.2 0,75 0,75 107,-0 107,-0 0,-75 0,-75 -32.2,-0.2 -32.3,-0.3 -5.3,-10.3 -5.3,-10.2 -31.9,-0 -31.9,-0 -5.3,10.2zM284.2,129.2l5.3,10.3 29.3,0.3 29.2,0.2 0,9 0,9 -37.2,-0c-30.2,-0 -38.2,-0.3 -42.2,-1.5 -2.7,-0.8 -8.4,-1.5 -12.6,-1.5 -4.2,-0 -9.9,0.7 -12.6,1.5 -4,1.2 -12,1.5 -42.1,1.5l-37.3,-0 0,-9 0,-9 29.3,-0.2 29.2,-0.3 5.3,-10.3 5.3,-10.2 22.9,-0 22.9,-0 5.3,10.2zM268.8,172.4c18.2,9.5 22.6,32.2 9.1,47.1 -6.3,6.8 -12.8,9.7 -21.9,9.7 -22.1,-0 -36.6,-23.3 -26.7,-42.8 3.5,-6.7 9.8,-12.6 16.4,-15 5.1,-1.9 18.7,-1.3 23.1,1zM219,173.4c0,0.2 -1.1,2.3 -2.4,4.7 -3.2,5.7 -5.6,14.9 -5.6,21.4 0,6.5 2.4,15.7 5.6,21.4 1.3,2.4 2.4,4.5 2.4,4.7 0,0.2 -12.4,0.4 -27.5,0.4l-27.5,-0 0,-26.5 0,-26.5 27.5,-0c15.1,-0 27.5,0.2 27.5,0.4zM348,199.5l0,26.5 -27.5,-0c-15.1,-0 -27.5,-0.2 -27.5,-0.4 0,-0.2 1.1,-2.3 2.4,-4.7 7.2,-12.8 7.2,-30 0,-42.8 -1.3,-2.4 -2.4,-4.5 -2.4,-4.7 0,-0.2 12.4,-0.4 27.5,-0.4l27.5,-0 0,26.5zM243.5,242.6c6.4,1.9 18.6,1.9 25,-0 4.1,-1.3 11.5,-1.6 42.3,-1.6l37.2,-0 0,9.5 0,9.5 -92,-0 -92,-0 0,-9.5 0,-9.5 37.3,-0c30.7,-0 38.1,0.3 42.2,1.6z"
      fill="#ffffff"
      stroke="#00000000"/>
  <path
      d="M247,199.5l0,7.5 7.5,-0 7.5,-0 0,-7.5 0,-7.5 -7.5,-0 -7.5,-0 0,7.5z"
      fill="#ffffff"
      stroke="#00000000"/>
  <path
      d="M405,214.6c0,1.1 -0.3,4.2 -0.6,7l-0.6,5.1 6.7,1.3c5.5,1 6.9,1 7.5,-0.1 1.1,-1.7 2.4,-12.9 1.6,-13.7 -0.4,-0.3 -3.8,-0.8 -7.7,-1 -6.2,-0.4 -6.9,-0.2 -6.9,1.4z"
      fill="#ffffff"
      stroke="#00000000"/>
  <path
      d="M74,259.1c-3,1.1 -6.1,2.1 -6.7,2.4 -1,0.3 -0.7,2.1 1.1,7 1.3,3.7 2.6,6.8 2.9,7.1 0.4,0.5 13.7,-4.5 13.7,-5.1 0,-0.8 -4.4,-12.1 -4.9,-12.6 -0.3,-0.4 -3.1,0.2 -6.1,1.2z"
      fill="#ffffff"
      stroke="#00000000"/>
  <path
      d="M218.8,406.6l-5.7,4.7 3.2,4c1.8,2.1 3.9,4.8 4.7,5.8 1.4,1.8 1.7,1.7 7.2,-2.8 6.4,-5.1 6.4,-4.9 0.1,-12.1l-3.8,-4.2 -5.7,4.6z"
      fill="#ffffff"
      stroke="#00000000"/>
  <path
      d="M237.8,429.7l-5.6,4.7 3.1,3.9c1.8,2.2 3.9,4.8 4.8,5.9 1.5,1.9 1.7,1.8 7.2,-2.7 6.4,-5.2 6.4,-5 0,-12.2l-3.8,-4.2 -5.7,4.6z"
      fill="#ffffff"
      stroke="#00000000"/>
</svg>
