<svg
    xmlns="http://www.w3.org/2000/svg"
    width="24dp"
    height="24dp"
    viewBox="0 0 512 512"
    tint="?attr/colorControlNormal">
  <path
      d="M253,45.3c-1.4,0.7 -18.7,12.3 -38.5,25.8 -19.8,13.5 -36.5,24.8 -37.1,25.2 -0.6,0.3 -15.9,4.7 -34,9.7 -18.1,4.9 -34.3,9.7 -36.1,10.5 -3.6,1.6 -3.5,1.1 -8.9,25.1l-3.8,16.4 2.1,2.8c1.4,1.8 3.1,2.8 5.4,3 5.6,0.5 7.2,-2.2 10.9,-18.8 1.8,-8 3.6,-14.9 4.1,-15.4 0.4,-0.5 15.5,-5 33.6,-10l32.8,-9.2 36.5,-24.8 36.5,-24.9 57.4,28.9 57.4,28.9 13.8,28.3c11.7,23.9 14.2,28.4 16.5,29.3 3.8,1.4 7.9,-0.5 9.5,-4.2 1.4,-3.4 -0.1,-6.8 -18.4,-43.9l-10.2,-20.5 -61.5,-31.1c-33.8,-17.2 -62.4,-31.4 -63.5,-31.8 -1.1,-0.3 -3.1,-0 -4.5,0.7z
                        M90.3,181.3c-1.1,1.4 -3.6,10.4 -6.3,22.2l-4.4,19.8 -15.6,7.4c-8.5,4.1 -17.8,8.6 -20.6,9.9 -3.5,1.6 -5.5,3.3 -6.2,5.2 -0.6,1.5 -5.6,31.9 -11.2,67.7 -5.6,35.7 -10.4,66 -10.7,67.2 -0.2,1.2 -2.3,3.4 -4.4,4.9 -2.2,1.5 -4.5,3.6 -5,4.6 -1.7,3.1 -6.2,50.8 -5.1,53.3 0.8,1.6 6.3,4.5 20.6,10.9 10.8,4.7 20.5,8.6 21.6,8.6 1,-0 11.1,-2.5 22.4,-5.5 11.2,-3 21.3,-5.5 22.3,-5.5 1.1,-0 4.8,1.1 8.3,2.5 6.2,2.4 6.9,2.5 33.4,2.5l27.1,-0 10.2,-7.1c11.8,-8.1 12.9,-10 9.4,-16.1l-2.2,-3.8 74.1,-0c71.2,-0 74,0.1 73.1,1.8 -0.5,1 -2.2,8 -3.6,15.6 -2.4,12.8 -2.5,13.9 -1,16.2 0.9,1.4 2.8,2.9 4.2,3.5 1.6,0.6 13.7,0.9 30.7,0.7l28.1,-0.3 9,-5.5c5,-3 10,-6.5 11.3,-7.7 2.2,-2.2 2.8,-2.3 22.2,-2.3l20,-0 20.7,5.5c11.4,3 21.8,5.5 23,5.5 2.3,-0 21.6,-15.8 24.7,-20.2 3.3,-4.7 2.1,-17.8 -8.9,-97.9 -5.7,-42 -10.7,-77.8 -11,-79.5 -0.5,-2.6 -4.8,-6.7 -27.3,-25.4l-26.7,-22.2 -6.4,-12.6c-3.5,-7 -7,-13.5 -7.9,-14.5 -3.5,-4 -12.2,-0.4 -12.2,5.1 0,1.2 3.1,8.6 6.8,16.5l6.9,14.3 26,21.7c22.4,18.6 26.2,22.1 26.7,24.9 1.7,9.7 16.6,121.1 16.2,121.5 -0.2,0.3 -7.5,-5.2 -16.1,-12.1l-15.7,-12.6 -9.9,-0 -9.9,-0 -12.1,-6.1c-8.7,-4.3 -13,-5.9 -15.2,-5.7 -2.7,0.3 -6,3.4 -22.5,22l-19.4,21.7 -3.7,-2.1c-4.7,-2.7 -7.1,-2.1 -14.1,3.7 -4.7,3.8 -5.6,4.2 -6.1,2.7 -0.3,-0.9 -2.1,-9.3 -3.9,-18.7 -3.6,-18.3 -5.2,-21.5 -10.5,-21.5 -3,-0 -7.5,4.1 -7.5,6.8 0,1 1.8,10.8 4,21.7 2.2,10.9 3.8,20 3.7,20.2 -0.2,0.2 -37.1,0.2 -81.9,0.1l-81.5,-0.3 11.6,-45.3 11.6,-45.3 35.4,-25.4c19.5,-14 35.6,-25.5 35.8,-25.5 0.3,-0 16.2,16.3 41.4,42.5l10.5,11 1.8,9.8c2.2,11.6 4.4,15 9.6,15 3.9,-0 7,-3.2 7,-7.2 -0.1,-1.4 -1.1,-7.7 -2.4,-13.8l-2.3,-11.3 -16.6,-17.2c-46,-48.1 -45.1,-47.2 -48.4,-46.5 -1.8,0.4 -20.4,13.1 -44.2,30.2 -38.1,27.4 -41.1,29.9 -42,33.3 -0.5,2 -5.8,22.6 -11.6,45.7 -5.9,23.1 -10.7,42.1 -10.9,42.2 -0.1,0.1 -6.9,-2.3 -15.1,-5.2 -8.3,-3 -16.1,-5.5 -17.5,-5.5 -1.4,-0 -5.4,1.8 -8.9,4l-6.4,3.9 -9.4,-13.7c-5.2,-7.5 -10.1,-14 -11.1,-14.5 -0.9,-0.4 -11.6,-2.9 -23.7,-5.7l-22,-4.9 -4.9,2.5c-2.7,1.3 -5,2.3 -5.1,2.2 -0.3,-0.5 18.1,-115.7 18.5,-116.1 0.3,-0.2 9.4,-4.6 20.3,-9.8 11.7,-5.5 20.3,-10.1 20.9,-11.3 1.4,-2.7 10.8,-43.3 10.8,-46.8 0,-6.3 -8.8,-9.4 -12.7,-4.5zM426.3,379.7c8.7,4.4 9.7,4.7 19.5,5.2l10.3,0.6 13.8,11 13.9,11 5.6,13.7c3.1,7.6 5.6,14.2 5.6,14.8 0,1 -3.9,4.8 -9.6,9.3l-2.6,2 -19.3,-5.2 -19.2,-5.1 -22.5,-0 -22.5,-0 -1.9,-9.2c-1.9,-9.2 -1.9,-9.3 -6.9,-13 -2.7,-2.1 -5,-4.2 -5,-4.7 0,-1.1 29.7,-34.9 30.8,-35 0.4,-0.1 4.9,2 10,4.6zM62.5,385.1c9.9,2.2 18,4.1 18.1,4.2 0.1,0.1 3.3,5 7.3,10.9 3.9,5.9 7.1,11 7.1,11.3 0,0.3 -1.2,1.6 -2.7,2.9 -1.8,1.6 -3.8,5.6 -6.2,12.6l-3.6,10.4 -19.5,5.1 -19.4,5.2 -13.8,-6 -13.8,-6 0.1,-4.1c0,-2.3 0.8,-10.8 1.7,-18.9l1.7,-14.8 12,-8.4c6.6,-4.6 12.2,-8.4 12.5,-8.4 0.2,-0.1 8.5,1.7 18.5,4zM136.4,415.6l10.1,3.6 6.3,8.3c3.4,4.5 6.2,8.5 6.2,8.8 0,0.4 -1.7,1.8 -3.7,3.2 -3.8,2.5 -3.8,2.5 -27.1,2.5 -17.9,-0 -24.1,-0.3 -26.7,-1.4l-3.4,-1.5 2.3,-6.8 2.3,-6.7 10.8,-6.8c5.9,-3.7 11.3,-6.8 11.8,-6.8 0.6,-0 5.6,1.6 11.1,3.6zM372.9,421l8.9,5.9 1.7,7.8c0.9,4.3 1.8,8.5 2.1,9.5 0.3,1.1 -1.2,2.6 -5.4,5.2l-6,3.6 -21.1,-0c-23.8,-0 -21.9,0.8 -19.8,-8.5 1.2,-4.7 1.9,-5.5 15.7,-17.2 8,-6.7 14.6,-12.2 14.8,-12.3 0.1,-0 4.3,2.7 9.1,6z"
      fill="#ffffff"
      stroke="#00000000"/>
</svg>
