<svg
    xmlns="http://www.w3.org/2000/svg"
    width="24dp"
    height="24dp"
    viewBox="0 0 512 512">
  <path
      d="M280.4,2c-11.3,2.9 -48.9,22.4 -77.4,40 -6.9,4.3 -18.6,11.4 -26,15.8 -39.8,23.8 -71.6,50 -87.2,71.8 -18.9,26.4 -22.8,51.5 -11.8,75.1 8,17.3 21.1,30.2 49.5,48.8 11.8,7.7 17.4,12.2 26.1,20.9 9.4,9.4 11.7,12.4 15.3,19.6 4.2,8.5 7.1,19.2 7.1,26.3 0,11.1 -6.6,30.1 -15.1,43.2 -21.7,33.4 -69,73.5 -132.6,112.4 -5.7,3.5 -11.4,7.6 -12.7,9.2 -6.3,7.5 -3.5,20.7 5.4,25.1 3.3,1.7 11,1.8 117.8,1.8l114.3,-0 2.4,-2.5c3,-2.9 3.2,-6.4 0.6,-9.6l-1.9,-2.4 -84.3,-0.5 -84.2,-0.5 10.9,-7.5c29.3,-20 52.1,-38.7 72.9,-59.5 32.8,-32.7 50.5,-61.2 56.6,-91 1.9,-9.4 1.4,-26.6 -1,-36 -7.2,-27.4 -26,-49.7 -61.6,-73 -24.4,-16 -36.2,-27 -43.4,-40.5 -6,-11.2 -7.7,-25.3 -4.6,-37.5 9.6,-37.9 65.1,-84.7 152.3,-128.4 13.7,-6.9 18.9,-8.1 34.2,-8.1l12.5,0.1 -8.4,4.7c-24.2,13.7 -52.8,35.1 -64.4,48.3 -8.2,9.2 -15.8,21.5 -19,30.7 -4.2,11.8 -4.3,24.2 -0.5,34.9 7.4,20.6 26.7,38.6 60.3,55.9 15.7,8.2 27.6,13.2 54.5,22.9 31,11.3 50.9,22 69.3,37.3 22.7,18.9 38.1,46.3 41.3,73.5 0.9,7.4 3.3,10.7 8,10.7 4.4,-0 7.4,-2.9 7.4,-7.4 0,-5.3 -2.9,-19.3 -6.1,-29.1 -9.4,-29.4 -31,-55.4 -61.9,-74.6 -11.7,-7.2 -32,-16.8 -47.5,-22.5 -38.6,-13.9 -60.2,-23.8 -78,-35.5 -25.9,-17.1 -37.9,-35.7 -34.6,-54 0.9,-5.4 6.2,-18.9 7.4,-18.9 0.2,-0 -0.2,2.3 -0.9,5.2 -6.6,25.3 10.5,49.5 49.7,70.2 16.2,8.6 31.8,14.9 62.3,25.2 46.6,15.8 68,27.6 90.2,49.8 12.7,12.8 18.8,21.1 25.9,35.4 11.9,23.6 17,53.4 14.5,84.2 -2.5,31.3 -9.6,60.5 -23,94 -16,39.9 -17,40.9 -39.7,41 -7.3,-0 -13.3,-0.2 -13.3,-0.5 0,-0.3 2,-3.7 4.5,-7.5 19.8,-30.9 37,-68.9 44.6,-98.4 3.3,-12.9 5.8,-28.7 4.9,-31 -1.2,-3.2 -3.7,-4.9 -7,-4.9 -4.1,-0 -6.7,2.7 -7.5,7.6 -6,39.9 -24.6,84 -54.6,129.4l-3.4,5.3 -53.3,-0 -53.3,-0 -2.4,2.5c-3.2,3.1 -3.2,6.9 0,10.1l2.5,2.4 78.2,-0.2c77.8,-0.3 78.3,-0.3 83,-2.5 10.9,-5 16.3,-12.8 27.7,-39.9 33.5,-79.7 36.9,-148.3 10,-200.4 -15.3,-29.7 -42.1,-55 -76.6,-72.3 -11.6,-5.9 -23.6,-10.6 -45.3,-17.7 -69.2,-22.8 -102.5,-45 -104.7,-69.7 -2,-22.8 29.3,-52.1 86.9,-81.3 7.5,-3.9 14.6,-8.2 15.7,-9.6 1.4,-1.8 2.1,-4.1 2.1,-7.1 0,-3.8 -0.5,-5 -3.4,-7.9l-3.4,-3.4 -32.9,0.1c-28.6,-0 -33.7,0.2 -39.9,1.9zM104.5,136.9c-5.2,10.1 -7.4,30.4 -4.6,42.1 5.5,22.4 21.7,41.3 53.1,61.5 15.5,10 24.5,17.2 34,27.1 23.6,24.5 30.4,51.1 20.9,81.4 -13,41.2 -60.2,89.5 -134.1,137.2l-16.7,10.8 -15.1,-0c-11.9,-0 -15,-0.3 -15,-1.3 0,-0.8 4.6,-4.2 10.3,-7.7 29.8,-18.6 63.4,-42.4 84.2,-59.8 14.1,-11.8 35.2,-33.6 44.3,-45.7 9.7,-12.9 19.3,-31.5 22.4,-43 2.7,-10.5 2.9,-27.2 0.4,-36.5 -4.2,-15.6 -15.7,-32.9 -30.4,-45.5 -4.2,-3.7 -15.5,-11.9 -25.1,-18.3 -18.7,-12.4 -30.9,-23.3 -37.5,-33.3 -11.2,-17 -11.5,-36.4 -0.9,-55.9 5.1,-9.5 14.2,-21.6 9.8,-13.1z"
      fill="#ffffff"/>
  <path
      d="M216.7,61.6c-6.7,4.4 -7,11.8 -0.7,14.4 3.4,1.4 5.5,0.8 10.9,-3 3.5,-2.5 4.1,-3.6 4.1,-6.5 0,-7.3 -7,-9.7 -14.3,-4.9z"
      fill="#ffffff"/>
  <path
      d="M184.3,88.7c-0.7,0.2 -3.5,3.3 -6.3,6.8 -3.8,4.8 -5,7.1 -5,9.7 0,4.4 2.6,6.8 7.3,6.8 3.3,-0 4.1,-0.7 9.2,-6.9 4,-4.9 5.5,-7.7 5.5,-9.9 0,-4.9 -5.9,-8.5 -10.7,-6.5z"
      fill="#ffffff"/>
  <path
      d="M162.2,135.7c-0.7,0.3 -1.9,1.8 -2.8,3.5 -2.8,5.5 0,20.6 4.1,22.2 3.2,1.2 6.5,0.6 8.6,-1.5 2,-2 2.1,-2.8 1.5,-11.3 -0.6,-8.1 -0.9,-9.4 -3.2,-11.4 -2.4,-2.1 -5.4,-2.7 -8.2,-1.5z"
      fill="#ffffff"/>
  <path
      d="M182.2,184.3c-4,4.2 -3,7.6 4.2,14.5 6.9,6.7 10.1,7.7 14.4,4.6 1.6,-1.1 2.2,-2.5 2.2,-5.3 0,-3.3 -0.7,-4.5 -6.4,-9.9 -7.3,-7 -10.7,-7.9 -14.4,-3.9z"
      fill="#ffffff"/>
  <path
      d="M225.3,214.5c-2.6,1.8 -3.8,6.7 -2.3,9.4 1.3,2.5 14.7,10.1 17.8,10.1 3,-0 7.2,-4.2 7.2,-7.2 0,-3.8 -2.7,-6.6 -10,-10.3 -7.7,-3.9 -9.6,-4.2 -12.7,-2z"
      fill="#ffffff"/>
  <path
      d="M272,239c-2.8,2.8 -2.6,8.1 0.3,10.7 4.2,3.8 12.7,8.3 15.6,8.3 2,-0 3.6,-0.9 5,-2.6 4.2,-5.3 2.5,-8.9 -6.7,-14.4 -7.6,-4.5 -11.2,-5 -14.2,-2z"
      fill="#ffffff"/>
  <path
      d="M315.4,270.5c-3.2,1.3 -4.4,3.2 -4.4,6.7 0,2.1 6.6,11.7 10.3,15 4.4,4.1 11.7,0.6 11.7,-5.5 0,-2.2 -1.4,-5 -4.5,-9.2 -5.4,-7.1 -8.6,-8.9 -13.1,-7z"
      fill="#ffffff"/>
  <path
      d="M334.6,319.2c-2.3,2.1 -2.6,3.1 -2.8,11.5 -0.3,10.9 1,13.3 7.2,13.3 6.1,-0 7.5,-2.5 7.5,-13.2 0,-8.6 -0.1,-9.1 -2.8,-11.4 -3.5,-3 -5.9,-3 -9.1,-0.2z"
      fill="#ffffff"/>
  <path
      d="M325.1,369.3c-3.3,1.6 -10.1,13.3 -10.1,17.4 0,5.8 5.8,9.1 11.1,6.3 2.3,-1.3 8.9,-14 8.9,-17.4 0,-5 -5.5,-8.5 -9.9,-6.3z"
      fill="#ffffff"/>
  <path
      d="M295.8,412.7c-0.9,0.2 -4.2,3.4 -7.2,6.9 -4,4.7 -5.6,7.4 -5.6,9.5 0,3.9 3.2,6.9 7.4,6.9 2.9,-0 4.3,-0.9 8.9,-6 3.1,-3.3 5.8,-6.9 6.2,-8 1,-3 -1.2,-7.5 -4.1,-8.9 -2.6,-1.1 -2.8,-1.2 -5.6,-0.4z"
      fill="#ffffff"/>
  <path
      d="M253,453.8c-4.9,4.3 -5.8,8.6 -2.5,12.2 3.4,3.8 11.7,1.4 16.3,-4.7 3.3,-4.5 -0.6,-11.3 -6.5,-11.3 -2.1,-0 -4.4,1.2 -7.3,3.8z"
      fill="#ffffff"/>
</svg>