<svg xmlns="http://www.w3.org/2000/svg"
    width="24dp"
    height="24dp"
    viewBox="0 0 512 512">
  <path
      d="M140.9,1.4c-2,1.2 -7.9,12.2 -25.8,48.3 -12.8,25.7 -23.5,48 -23.8,49.5 -1.1,5.7 4,11.8 10,11.8 5.5,-0 7.4,-3.1 31.1,-51 24.9,-50.4 25.3,-51.7 20.5,-56.5 -3.1,-3.1 -8.5,-4 -12,-2.1z"
      fill="#ffffff"
      stroke="#00000000"/>
  <path
      d="M191.5,0.9c-1.1,0.5 -2.8,1.7 -3.7,2.7 -0.9,1.1 -43.6,113.3 -94.8,249.4 -76.2,202.4 -93,248.1 -92.5,250.7 0.7,3.8 5.6,8.3 9.2,8.3 3.8,-0 8,-3 9.7,-6.9 3.2,-7.4 184.8,-490.7 185.3,-493.3 1.5,-7.5 -6.1,-13.8 -13.2,-10.9z"
      fill="#ffffff"
      stroke="#00000000"/>
  <path
      d="M252.5,0.9c-1.1,0.5 -2.9,1.9 -4,3.1 -1.9,2.1 -2,3.8 -2.3,33.8 -0.3,33.2 0,35.8 4.2,38.7 1.1,0.8 3.6,1.5 5.6,1.5 2,-0 4.5,-0.7 5.6,-1.5 4.2,-2.9 4.5,-5.5 4.2,-38.9l-0.3,-31.8 -3.3,-2.9c-3.2,-2.9 -6,-3.5 -9.7,-2z"
      fill="#ffffff"
      stroke="#00000000"/>
  <path
      d="M311.9,1.5c-3.2,1.7 -5.3,6.6 -4.6,10.3 0.3,1.5 23.8,64.6 52.2,140.2 56.1,149.3 53.4,143 61.1,143 4.9,-0 9.4,-4.5 9.4,-9.3 0,-4.8 -103.4,-279.5 -106.4,-282.5 -2.8,-2.9 -8.3,-3.7 -11.7,-1.7z"
      fill="#ffffff"
      stroke="#00000000"/>
  <path
      d="M362.5,0.9c-3.6,1.5 -6,5.1 -5.9,8.9 0,3.4 24.4,53.5 128.2,263 9.8,19.9 11.6,22.2 17.2,22.2 5.9,-0 10.9,-6.2 9.5,-11.7 -0.3,-1.5 -25.2,-52.5 -55.2,-113.3 -30,-60.8 -60.9,-123.2 -68.5,-138.8 -11.5,-23.2 -14.4,-28.5 -16.8,-29.7 -3.2,-1.7 -5.5,-1.8 -8.5,-0.6z"
      fill="#ffffff"
      stroke="#00000000"/>
  <path
      d="M249.3,111.4l-2.8,2.4 0,33.6 0,33.6 2.8,2.7c3.8,3.8 9.6,3.8 13.4,-0l2.8,-2.7 0,-33.6 0,-33.6 -2.8,-2.4c-1.9,-1.6 -4,-2.4 -6.7,-2.4 -2.7,-0 -4.8,0.8 -6.7,2.4z"
      fill="#ffffff"
      stroke="#00000000"/>
  <path
      d="M77.1,128.9c-9.3,8.7 3.5,22.8 13,14.3 2.6,-2.4 3.2,-3.6 3.2,-7.2 0,-3.6 -0.6,-4.8 -3.2,-7.2 -4.3,-3.8 -8.8,-3.8 -13,0.1z"
      fill="#ffffff"
      stroke="#00000000"/>
  <path
      d="M60.5,165.1c-1.1,0.6 -2.7,2 -3.6,3.2 -2.4,3.4 -55.7,111.9 -56.4,115 -1.4,5.6 3.6,11.7 9.5,11.7 6.7,-0 6.4,0.4 49.7,-88 16.6,-34 16.9,-34.9 12,-39.8 -2.6,-2.6 -8.2,-3.7 -11.2,-2.1z"
      fill="#ffffff"
      stroke="#00000000"/>
  <path
      d="M251.1,218.4c-4.9,2.7 -5,4 -5.1,37.4 0,25.2 0.3,31.8 1.4,34.1 3.5,6.6 13.7,6.6 17.2,-0 1.9,-3.7 2.1,-63.3 0.2,-67.4 -2.2,-4.8 -8.8,-6.8 -13.7,-4.1z"
      fill="#ffffff"
      stroke="#00000000"/>
  <path
      d="M428.7,313.1c-5,2.9 -5.8,11.6 -1.4,15.6 6.8,6.3 16.7,1.8 16.7,-7.5 0,-4.6 -4.8,-9.2 -9.7,-9.2 -2.1,-0 -4.6,0.5 -5.6,1.1z"
      fill="#ffffff"
      stroke="#00000000"/>
  <path
      d="M252.5,325.9c-1.1,0.5 -2.9,1.9 -4,3.1 -1.9,2.1 -2,3.6 -2,35.7l0,33.5 2.8,2.4c3.8,3.3 9.6,3.3 13.4,-0l2.8,-2.4 0,-33.6 0,-33.6 -2.5,-2.5c-2.8,-2.7 -7.4,-3.9 -10.5,-2.6z"
      fill="#ffffff"
      stroke="#00000000"/>
  <path
      d="M442.5,353.2c-5.5,4.8 -5.9,3.4 22.9,80 14.6,38.9 27.1,71.8 27.7,73.1 1.3,2.9 5.8,5.7 9.2,5.7 3.6,-0 8.5,-4.5 9.2,-8.3 0.5,-2.6 -4.1,-15.8 -24,-68.7 -13.6,-36 -26,-69 -27.7,-73.3 -2.3,-5.9 -3.6,-8.1 -5.8,-9.2 -4.1,-2.1 -8.5,-1.9 -11.5,0.7z"
      fill="#ffffff"
      stroke="#00000000"/>
  <path
      d="M250.4,435.5c-4.2,2.9 -4.5,5.5 -4.2,38.8l0.3,31.7 2.6,2.5c1.4,1.4 4.1,2.8 6.1,3.1 3,0.5 4.1,0.1 6.9,-2.4l3.4,-3 0.3,-31.8c0.3,-33.4 0,-36 -4.2,-38.9 -1.1,-0.8 -3.6,-1.5 -5.6,-1.5 -2,-0 -4.5,0.7 -5.6,1.5z"
      fill="#ffffff"
      stroke="#00000000"/>
</svg>
